<?xml version="1.0" encoding="utf-8"?>
<!-- Svg Vector Icons : http://www.onlinewebfonts.com/icon -->
<!DOCTYPE svg PUBLIC "-//W3C//DTD SVG 1.1//EN" "http://www.w3.org/Graphics/SVG/1.1/DTD/svg11.dtd">
<svg version="1.1" xmlns="http://www.w3.org/2000/svg" xmlns:xlink="http://www.w3.org/1999/xlink" x="0px" y="0px" viewBox="0 0 256 256" enable-background="new 0 0 256 256" xml:space="preserve">
<metadata> Svg Vector Icons : http://www.onlinewebfonts.com/icon </metadata>
<g><g><g><path fill="#FFFFFF" d="M230.2,176.2v53.5c0,9-7.3,16.2-16.2,16.2H42c-9,0-16.2-7.2-16.2-16.2v-53.5c0-9,7.3-16.2,16.2-16.2c9,0,16.2,7.3,16.2,16.2v37.3h139.5v-37.3c0-9,7.3-16.2,16.2-16.2S230.2,167.3,230.2,176.2z M116.6,190.1c3.2,3.2,7.3,4.7,11.5,4.7c4.2,0,8.3-1.6,11.5-4.7l48.6-48.6c6.4-6.3,6.4-16.6,0-22.9c-6.3-6.3-16.6-6.3-22.9,0l-21,21V26.2c0-9-7.2-16.2-16.2-16.2c-9,0-16.2,7.3-16.2,16.2v113.3l-21-21c-6.3-6.3-16.6-6.3-22.9,0c-6.3,6.3-6.3,16.6,0,22.9L116.6,190.1z"/></g><g></g><g></g><g></g><g></g><g></g><g></g><g></g><g></g><g></g><g></g><g></g><g></g><g></g><g></g><g></g></g></g>
</svg>